<svg xmlns="http://www.w3.org/2000/svg" viewBox="0 0 200 224" width="400" height="448" role="img" aria-label="Mo, the Maestro mascot">
<title>Mo, the Maestro mascot</title>
<defs>
    <linearGradient id="g-neon" x1="0" y1="0" x2="1" y2="0.18">
      <stop offset="0" stop-color="#7B5CFF"/><stop offset="0.52" stop-color="#FF3FA4"/><stop offset="1" stop-color="#FF9A3D"/>
    </linearGradient>
    <linearGradient id="g-wm" gradientUnits="userSpaceOnUse" x1="0" y1="-780" x2="6577" y2="0">
      <stop offset="0" stop-color="#8C6BFF"/><stop offset="0.5" stop-color="#FF3FA4"/><stop offset="1" stop-color="#FFA24A"/>
    </linearGradient>
    <linearGradient id="g-mo-head" x1="0.1" y1="0.05" x2="0.9" y2="1">
      <stop offset="0" stop-color="#FF6FC8"/><stop offset="0.55" stop-color="#FF3FA4"/><stop offset="1" stop-color="#FF8A3D"/>
    </linearGradient>
    <linearGradient id="g-volt" x1="0" y1="0" x2="0" y2="1">
      <stop offset="0" stop-color="#E2FF7A"/><stop offset="1" stop-color="#A9F02B"/>
    </linearGradient>
    <linearGradient id="g-gold" x1="0" y1="0" x2="0" y2="1">
      <stop offset="0" stop-color="#FFEE9A"/><stop offset="0.5" stop-color="#FFD23F"/><stop offset="1" stop-color="#F29A1C"/>
    </linearGradient>
    <linearGradient id="g-mark-bg" x1="0" y1="0" x2="0.4" y2="1">
      <stop offset="0" stop-color="#3A2A9E"/><stop offset="1" stop-color="#120E3A"/>
    </linearGradient>
    <radialGradient id="g-mark-glow" cx="0.5" cy="0.62" r="0.55">
      <stop offset="0" stop-color="#FF3FA4" stop-opacity="0.55"/><stop offset="1" stop-color="#FF3FA4" stop-opacity="0"/>
    </radialGradient>
  </defs>
<ellipse cx="98" cy="214" rx="62" ry="7" fill="#000" opacity=".32"/>
    <rect x="148" y="18" width="15" height="118" rx="7.5" fill="#F5F3FF"/>
    <path d="M163 20c20 9 36 25 34 50-1 14-7 23-14 29 6-19 1-35-20-44z" fill="url(#g-volt)"/>
    <path d="M166 24c10 5 19 12 24 22" stroke="#fff" stroke-width="3.5" stroke-linecap="round" opacity=".55" fill="none"/>
    <!-- both arms up -->
    <path d="M34 140c-12-10-18-26-14-44" stroke="#FF4FA9" stroke-width="11" stroke-linecap="round" fill="none"/>
    <circle cx="21" cy="92" r="9.5" fill="#FF6FC0"/>
    <path d="M148 160c14-4 26-12 32-26" stroke="#FF7A5A" stroke-width="11" stroke-linecap="round" fill="none"/>
    <circle cx="182" cy="130" r="9.5" fill="#FF9A5A"/>
    <g transform="rotate(-17 94 148)">
      <ellipse cx="94" cy="148" rx="74" ry="57" fill="url(#g-mo-head)"/>
      <ellipse cx="70" cy="119" rx="36" ry="13" fill="#fff" opacity=".24"/>
    </g>
    <!-- happy eyes -->
    <path d="M53 145c4-13 24-15 30-3" stroke="#150F35" stroke-width="7" stroke-linecap="round" fill="none"/>
    <path d="M96 132c4-13 24-15 30-3" stroke="#150F35" stroke-width="7" stroke-linecap="round" fill="none"/>
    <ellipse cx="52" cy="167" rx="10" ry="6" fill="#FFC2E2" opacity=".7"/><ellipse cx="136" cy="150" rx="10" ry="6" fill="#FFC2E2" opacity=".7"/>
    <path d="M74 160c10 24 42 22 50-8-16 8-33 10-50 8z" fill="#2A0A2A"/>
    <path d="M88 176c9 5 20 4 27-4-8-2-18-1-27 4z" fill="#FF7A9C"/>
</svg>
